STARTFONT 2.1
FONT -FontForge-VCR OSD Mono-Book-R-Normal--14-100-100-100-P-77-ISO10646-1
SIZE 10 100 100
FONTBOUNDINGBOX 9 12 0 0
COMMENT "Generated by fontforge, http://fontforge.sourceforge.net"
STARTPROPERTIES 39
FOUNDRY "FontForge"
FAMILY_NAME "VCR OSD Mono"
WEIGHT_NAME "Book"
SLANT "R"
SETWIDTH_NAME "Normal"
ADD_STYLE_NAME ""
PIXEL_SIZE 14
POINT_SIZE 100
RESOLUTION_X 100
RESOLUTION_Y 100
SPACING "P"
AVERAGE_WIDTH 77
CHARSET_REGISTRY "ISO10646"
CHARSET_ENCODING "1"
FONTNAME_REGISTRY ""
CHARSET_COLLECTIONS "ISO10646-1"
FONT_NAME "VCROSDMono"
FACE_NAME "VCR OSD Mono"
FONT_VERSION "1.001 March 31, 2015"
FONT_ASCENT 11
FONT_DESCENT 3
UNDERLINE_POSITION -2
UNDERLINE_THICKNESS 2
X_HEIGHT 7
CAP_HEIGHT 9
DEFAULT_CHAR 1
RAW_ASCENT 799
RAW_DESCENT 200
NORM_SPACE 8
RELATIVE_WEIGHT 40
RELATIVE_SETWIDTH 50
SUPERSCRIPT_X 0
SUPERSCRIPT_Y 6
SUPERSCRIPT_SIZE 9
SUBSCRIPT_X 0
SUBSCRIPT_Y 2
SUBSCRIPT_SIZE 9
AVG_LOWERCASE_WIDTH 77
AVG_UPPERCASE_WIDTH 76
ENDPROPERTIES
CHARS 209
STARTCHAR NULL
ENCODING 0
SWIDTH 0 0
DWIDTH 0 0
BBX 1 1 0 0
BITMAP
00
ENDCHAR
STARTCHAR NULL.dup1
ENCODING 29
SWIDTH 0 0
DWIDTH 0 0
BBX 1 1 0 0
BITMAP
00
ENDCHAR
STARTCHAR space
ENCODING 32
SWIDTH 585 0
DWIDTH 8 0
BBX 1 1 0 0
BITMAP
00
ENDCHAR
STARTCHAR exclam
ENCODING 33
SWIDTH 585 0
DWIDTH 8 0
BBX 1 9 3 1
BITMAP
80
80
80
80
80
80
80
00
80
ENDCHAR
STARTCHAR quotedbl
ENCODING 34
SWIDTH 585 0
DWIDTH 7 0
BBX 5 3 1 7
BITMAP
88
88
88
ENDCHAR
STARTCHAR numbersign
ENCODING 35
SWIDTH 585 0
DWIDTH 8 0
BBX 7 9 1 1
BITMAP
08
2E
B8
E8
28
3E
E8
20
20
ENDCHAR
STARTCHAR dollar
ENCODING 36
SWIDTH 585 0
DWIDTH 7 0
BBX 5 9 1 1
BITMAP
10
F8
90
90
F8
18
18
98
70
ENDCHAR
STARTCHAR percent
ENCODING 37
SWIDTH 585 0
DWIDTH 9 0
BBX 7 9 1 1
BITMAP
E2
A2
AE
5C
38
64
DA
9E
9E
ENDCHAR
STARTCHAR ampersand
ENCODING 38
SWIDTH 585 0
DWIDTH 8 0
BBX 6 10 1 1
BITMAP
70
48
48
48
70
70
B4
88
C8
74
ENDCHAR
STARTCHAR quotesingle
ENCODING 39
SWIDTH 585 0
DWIDTH 8 0
BBX 1 2 4 8
BITMAP
80
80
ENDCHAR
STARTCHAR parenleft
ENCODING 40
SWIDTH 585 0
DWIDTH 8 0
BBX 3 11 2 1
BITMAP
20
40
40
80
80
80
80
80
80
40
20
ENDCHAR
STARTCHAR parenright
ENCODING 41
SWIDTH 585 0
DWIDTH 8 0
BBX 3 11 3 1
BITMAP
80
40
40
20
20
20
20
20
20
40
80
ENDCHAR
STARTCHAR asterisk
ENCODING 42
SWIDTH 585 0
DWIDTH 8 0
BBX 6 6 1 5
BITMAP
10
94
78
94
94
10
ENDCHAR
STARTCHAR plus
ENCODING 43
SWIDTH 585 0
DWIDTH 8 0
BBX 7 7 1 2
BITMAP
10
10
10
FE
10
10
10
ENDCHAR
STARTCHAR comma
ENCODING 44
SWIDTH 585 0
DWIDTH 8 0
BBX 2 2 3 1
BITMAP
40
C0
ENDCHAR
STARTCHAR hyphen
ENCODING 45
SWIDTH 585 0
DWIDTH 8 0
BBX 6 1 1 5
BITMAP
FC
ENDCHAR
STARTCHAR period
ENCODING 46
SWIDTH 585 0
DWIDTH 8 0
BBX 1 1 3 1
BITMAP
80
ENDCHAR
STARTCHAR slash
ENCODING 47
SWIDTH 585 0
DWIDTH 8 0
BBX 6 9 1 1
BITMAP
04
04
0C
18
30
60
C0
80
80
ENDCHAR
STARTCHAR zero
ENCODING 48
SWIDTH 585 0
DWIDTH 7 0
BBX 5 8 1 2
BITMAP
F8
88
B8
B8
E8
E8
88
F8
ENDCHAR
STARTCHAR one
ENCODING 49
SWIDTH 585 0
DWIDTH 8 0
BBX 4 9 2 1
BITMAP
60
E0
20
20
20
20
20
20
F0
ENDCHAR
STARTCHAR two
ENCODING 50
SWIDTH 585 0
DWIDTH 7 0
BBX 5 9 1 1
BITMAP
70
88
08
08
F8
80
80
80
F8
ENDCHAR
STARTCHAR three
ENCODING 51
SWIDTH 585 0
DWIDTH 8 0
BBX 6 9 1 1
BITMAP
78
84
04
04
1C
04
04
04
FC
ENDCHAR
STARTCHAR four
ENCODING 52
SWIDTH 585 0
DWIDTH 8 0
BBX 6 9 1 1
BITMAP
18
18
68
E8
88
FC
08
08
08
ENDCHAR
STARTCHAR five
ENCODING 53
SWIDTH 585 0
DWIDTH 7 0
BBX 5 9 1 1
BITMAP
F8
80
80
F8
08
08
08
F8
88
ENDCHAR
STARTCHAR six
ENCODING 54
SWIDTH 585 0
DWIDTH 7 0
BBX 5 8 1 2
BITMAP
70
88
80
80
F8
88
88
F8
ENDCHAR
STARTCHAR seven
ENCODING 55
SWIDTH 585 0
DWIDTH 8 0
BBX 6 9 1 1
BITMAP
FC
04
0C
1C
38
20
20
20
20
ENDCHAR
STARTCHAR eight
ENCODING 56
SWIDTH 585 0
DWIDTH 7 0
BBX 5 8 1 2
BITMAP
F8
88
88
88
70
88
88
F8
ENDCHAR
STARTCHAR nine
ENCODING 57
SWIDTH 585 0
DWIDTH 7 0
BBX 5 9 1 1
BITMAP
F8
88
88
88
F8
08
08
98
E8
ENDCHAR
STARTCHAR colon
ENCODING 58
SWIDTH 585 0
DWIDTH 8 0
BBX 1 7 3 2
BITMAP
80
00
00
00
00
00
80
ENDCHAR
STARTCHAR semicolon
ENCODING 59
SWIDTH 585 0
DWIDTH 8 0
BBX 2 8 2 1
BITMAP
40
00
00
00
00
40
40
80
ENDCHAR
STARTCHAR less
ENCODING 60
SWIDTH 585 0
DWIDTH 8 0
BBX 4 10 1 1
BITMAP
20
50
40
B0
80
80
80
70
40
20
ENDCHAR
STARTCHAR equal
ENCODING 61
SWIDTH 585 0
DWIDTH 8 0
BBX 7 3 1 4
BITMAP
FE
00
FE
ENDCHAR
STARTCHAR greater
ENCODING 62
SWIDTH 585 0
DWIDTH 8 0
BBX 3 10 2 1
BITMAP
80
40
40
20
20
20
20
40
40
80
ENDCHAR
STARTCHAR question
ENCODING 63
SWIDTH 585 0
DWIDTH 7 0
BBX 6 9 0 1
BITMAP
38
C4
04
04
08
08
00
00
08
ENDCHAR
STARTCHAR at
ENCODING 64
SWIDTH 585 0
DWIDTH 8 0
BBX 6 9 1 1
BITMAP
78
84
BC
CC
CC
CC
B4
44
78
ENDCHAR
STARTCHAR A
ENCODING 65
SWIDTH 585 0
DWIDTH 8 0
BBX 6 9 1 1
BITMAP
30
CC
84
84
84
FC
84
84
84
ENDCHAR
STARTCHAR B
ENCODING 66
SWIDTH 585 0
DWIDTH 7 0
BBX 5 9 1 1
BITMAP
F8
88
88
88
F0
88
88
88
F8
ENDCHAR
STARTCHAR C
ENCODING 67
SWIDTH 585 0
DWIDTH 7 0
BBX 7 9 1 1
BITMAP
70
8C
82
80
80
80
80
F8
88
ENDCHAR
STARTCHAR D
ENCODING 68
SWIDTH 585 0
DWIDTH 7 0
BBX 5 9 1 1
BITMAP
F8
88
88
88
88
88
88
88
F8
ENDCHAR
STARTCHAR E
ENCODING 69
SWIDTH 585 0
DWIDTH 8 0
BBX 6 9 1 1
BITMAP
FC
80
80
80
F8
80
80
80
FC
ENDCHAR
STARTCHAR F
ENCODING 70
SWIDTH 585 0
DWIDTH 8 0
BBX 6 9 1 1
BITMAP
FC
80
80
80
F8
80
80
80
80
ENDCHAR
STARTCHAR G
ENCODING 71
SWIDTH 585 0
DWIDTH 8 0
BBX 6 8 1 2
BITMAP
78
84
80
80
9C
84
84
FC
ENDCHAR
STARTCHAR H
ENCODING 72
SWIDTH 585 0
DWIDTH 8 0
BBX 6 9 1 1
BITMAP
84
84
84
84
FC
84
84
84
84
ENDCHAR
STARTCHAR I
ENCODING 73
SWIDTH 585 0
DWIDTH 8 0
BBX 3 9 3 1
BITMAP
E0
40
40
40
40
40
40
40
E0
ENDCHAR
STARTCHAR J
ENCODING 74
SWIDTH 585 0
DWIDTH 8 0
BBX 6 9 1 1
BITMAP
1C
08
08
08
08
08
08
D8
E8
ENDCHAR
STARTCHAR K
ENCODING 75
SWIDTH 585 0
DWIDTH 8 0
BBX 6 9 1 1
BITMAP
8C
88
90
90
F0
90
88
88
84
ENDCHAR
STARTCHAR L
ENCODING 76
SWIDTH 585 0
DWIDTH 8 0
BBX 6 9 1 1
BITMAP
80
80
80
80
80
80
80
80
FC
ENDCHAR
STARTCHAR M
ENCODING 77
SWIDTH 585 0
DWIDTH 7 0
BBX 5 9 1 1
BITMAP
88
D8
F8
F8
A8
88
88
88
88
ENDCHAR
STARTCHAR N
ENCODING 78
SWIDTH 585 0
DWIDTH 8 0
BBX 6 9 1 1
BITMAP
84
84
C4
E4
B4
9C
8C
84
84
ENDCHAR
STARTCHAR O
ENCODING 79
SWIDTH 585 0
DWIDTH 7 0
BBX 5 8 1 2
BITMAP
F8
88
88
88
88
88
88
F8
ENDCHAR
STARTCHAR P
ENCODING 80
SWIDTH 585 0
DWIDTH 7 0
BBX 5 9 1 1
BITMAP
F8
88
88
88
F8
80
80
80
80
ENDCHAR
STARTCHAR Q
ENCODING 81
SWIDTH 585 0
DWIDTH 8 0
BBX 6 9 1 1
BITMAP
FC
84
84
84
84
94
88
88
F4
ENDCHAR
STARTCHAR R
ENCODING 82
SWIDTH 585 0
DWIDTH 7 0
BBX 5 9 1 1
BITMAP
F8
88
88
88
F8
A0
90
98
88
ENDCHAR
STARTCHAR S
ENCODING 83
SWIDTH 585 0
DWIDTH 7 0
BBX 7 9 1 1
BITMAP
70
88
80
80
F8
08
0C
0C
FA
ENDCHAR
STARTCHAR T
ENCODING 84
SWIDTH 585 0
DWIDTH 8 0
BBX 7 9 1 1
BITMAP
FE
10
10
10
10
10
10
10
10
ENDCHAR
STARTCHAR U
ENCODING 85
SWIDTH 585 0
DWIDTH 8 0
BBX 6 8 1 2
BITMAP
84
84
84
84
84
84
84
FC
ENDCHAR
STARTCHAR V
ENCODING 86
SWIDTH 585 0
DWIDTH 8 0
BBX 6 9 1 1
BITMAP
84
84
84
84
84
84
84
FC
50
ENDCHAR
STARTCHAR W
ENCODING 87
SWIDTH 585 0
DWIDTH 7 0
BBX 5 8 1 2
BITMAP
88
88
88
88
A8
A8
A8
50
ENDCHAR
STARTCHAR X
ENCODING 88
SWIDTH 585 0
DWIDTH 7 0
BBX 6 9 1 1
BITMAP
84
84
84
78
38
78
84
84
84
ENDCHAR
STARTCHAR Y
ENCODING 89
SWIDTH 585 0
DWIDTH 7 0
BBX 5 9 1 1
BITMAP
88
88
88
D8
D8
50
20
20
20
ENDCHAR
STARTCHAR Z
ENCODING 90
SWIDTH 585 0
DWIDTH 8 0
BBX 7 9 1 1
BITMAP
FE
06
0E
18
30
60
C0
80
FE
ENDCHAR
STARTCHAR bracketleft
ENCODING 91
SWIDTH 585 0
DWIDTH 8 0
BBX 4 10 3 1
BITMAP
F0
80
80
80
80
80
80
80
80
F0
ENDCHAR
STARTCHAR backslash
ENCODING 92
SWIDTH 585 0
DWIDTH 8 0
BBX 6 9 1 1
BITMAP
80
80
C0
60
30
18
0C
04
04
ENDCHAR
STARTCHAR bracketright
ENCODING 93
SWIDTH 585 0
DWIDTH 8 0
BBX 4 10 1 1
BITMAP
F0
10
10
10
10
10
10
10
10
F0
ENDCHAR
STARTCHAR asciicircum
ENCODING 94
SWIDTH 585 0
DWIDTH 8 0
BBX 7 2 1 8
BITMAP
30
CE
ENDCHAR
STARTCHAR underscore
ENCODING 95
SWIDTH 585 0
DWIDTH 8 0
BBX 8 1 0 0
BITMAP
FF
ENDCHAR
STARTCHAR grave
ENCODING 96
SWIDTH 585 0
DWIDTH 8 0
BBX 3 2 2 8
BITMAP
E0
20
ENDCHAR
STARTCHAR a
ENCODING 97
SWIDTH 585 0
DWIDTH 8 0
BBX 5 8 1 1
BITMAP
78
08
08
78
88
88
88
78
ENDCHAR
STARTCHAR b
ENCODING 98
SWIDTH 585 0
DWIDTH 7 0
BBX 5 9 1 1
BITMAP
80
80
80
B0
A8
C8
C8
F8
28
ENDCHAR
STARTCHAR c
ENCODING 99
SWIDTH 585 0
DWIDTH 7 0
BBX 5 7 1 1
BITMAP
70
E8
88
80
80
C8
B8
ENDCHAR
STARTCHAR d
ENCODING 100
SWIDTH 585 0
DWIDTH 9 0
BBX 7 9 1 1
BITMAP
02
02
02
32
F2
8E
8E
AE
70
ENDCHAR
STARTCHAR e
ENCODING 101
SWIDTH 585 0
DWIDTH 7 0
BBX 5 7 1 1
BITMAP
30
C8
88
F8
80
88
70
ENDCHAR
STARTCHAR f
ENCODING 102
SWIDTH 585 0
DWIDTH 8 0
BBX 5 9 2 1
BITMAP
38
60
F8
20
20
20
20
20
20
ENDCHAR
STARTCHAR g
ENCODING 103
SWIDTH 585 0
DWIDTH 7 0
BBX 4 8 2 1
BITMAP
E0
90
90
90
F0
10
90
E0
ENDCHAR
STARTCHAR h
ENCODING 104
SWIDTH 585 0
DWIDTH 8 0
BBX 6 9 1 1
BITMAP
80
80
80
B0
CC
C4
84
84
84
ENDCHAR
STARTCHAR i
ENCODING 105
SWIDTH 585 0
DWIDTH 8 0
BBX 4 8 2 1
BITMAP
20
00
E0
20
20
20
30
10
ENDCHAR
STARTCHAR j
ENCODING 106
SWIDTH 585 0
DWIDTH 8 0
BBX 4 10 2 1
BITMAP
10
00
00
30
10
10
10
10
30
F0
ENDCHAR
STARTCHAR k
ENCODING 107
SWIDTH 585 0
DWIDTH 7 0
BBX 5 9 1 1
BITMAP
80
80
80
88
90
90
A0
D8
88
ENDCHAR
STARTCHAR l
ENCODING 108
SWIDTH 585 0
DWIDTH 8 0
BBX 1 9 4 1
BITMAP
80
80
80
80
80
80
80
80
80
ENDCHAR
STARTCHAR m
ENCODING 109
SWIDTH 585 0
DWIDTH 7 0
BBX 5 7 1 1
BITMAP
F0
F8
A8
A8
A8
A8
A8
ENDCHAR
STARTCHAR n
ENCODING 110
SWIDTH 585 0
DWIDTH 8 0
BBX 6 7 1 1
BITMAP
B8
CC
84
84
84
84
84
ENDCHAR
STARTCHAR o
ENCODING 111
SWIDTH 585 0
DWIDTH 7 0
BBX 5 6 1 2
BITMAP
F8
88
88
88
88
F8
ENDCHAR
STARTCHAR p
ENCODING 112
SWIDTH 585 0
DWIDTH 7 0
BBX 5 8 1 1
BITMAP
B8
C8
C8
C8
B8
80
80
80
ENDCHAR
STARTCHAR q
ENCODING 113
SWIDTH 585 0
DWIDTH 9 0
BBX 7 8 1 1
BITMAP
FE
82
82
82
8E
72
02
02
ENDCHAR
STARTCHAR r
ENCODING 114
SWIDTH 585 0
DWIDTH 8 0
BBX 6 7 1 1
BITMAP
B0
FC
C4
C0
80
80
80
ENDCHAR
STARTCHAR s
ENCODING 115
SWIDTH 585 0
DWIDTH 7 0
BBX 5 7 1 1
BITMAP
78
88
88
E0
B0
30
F8
ENDCHAR
STARTCHAR t
ENCODING 116
SWIDTH 585 0
DWIDTH 8 0
BBX 3 9 3 1
BITMAP
40
40
E0
40
40
40
40
60
20
ENDCHAR
STARTCHAR u
ENCODING 117
SWIDTH 585 0
DWIDTH 8 0
BBX 6 6 1 2
BITMAP
84
84
84
84
84
FC
ENDCHAR
STARTCHAR v
ENCODING 118
SWIDTH 585 0
DWIDTH 8 0
BBX 6 7 1 1
BITMAP
84
84
84
84
84
FC
50
ENDCHAR
STARTCHAR w
ENCODING 119
SWIDTH 585 0
DWIDTH 7 0
BBX 5 6 1 2
BITMAP
88
88
A8
A8
A8
D8
ENDCHAR
STARTCHAR x
ENCODING 120
SWIDTH 585 0
DWIDTH 7 0
BBX 7 7 1 1
BITMAP
84
68
78
30
30
D8
C6
ENDCHAR
STARTCHAR y
ENCODING 121
SWIDTH 585 0
DWIDTH 7 0
BBX 5 8 1 1
BITMAP
88
88
88
88
98
F8
08
78
ENDCHAR
STARTCHAR z
ENCODING 122
SWIDTH 585 0
DWIDTH 8 0
BBX 7 7 1 1
BITMAP
FE
0E
1C
30
30
C0
FE
ENDCHAR
STARTCHAR braceleft
ENCODING 123
SWIDTH 585 0
DWIDTH 7 0
BBX 3 10 2 2
BITMAP
20
40
40
40
40
80
40
40
40
60
ENDCHAR
STARTCHAR bar
ENCODING 124
SWIDTH 585 0
DWIDTH 8 0
BBX 1 11 4 1
BITMAP
80
80
80
80
80
80
80
80
80
80
80
ENDCHAR
STARTCHAR braceright
ENCODING 125
SWIDTH 585 0
DWIDTH 7 0
BBX 3 10 2 2
BITMAP
80
80
40
40
40
20
40
40
40
80
ENDCHAR
STARTCHAR asciitilde
ENCODING 126
SWIDTH 585 0
DWIDTH 8 0
BBX 7 2 1 4
BITMAP
F6
98
ENDCHAR
STARTCHAR space.dup2
ENCODING 160
SWIDTH 585 0
DWIDTH 8 0
BBX 1 1 0 0
BITMAP
00
ENDCHAR
STARTCHAR exclamdown
ENCODING 161
SWIDTH 585 0
DWIDTH 8 0
BBX 1 9 4 1
BITMAP
80
00
80
80
80
80
80
80
80
ENDCHAR
STARTCHAR cent
ENCODING 162
SWIDTH 585 0
DWIDTH 7 0
BBX 5 9 1 1
BITMAP
10
70
98
98
90
98
D8
70
10
ENDCHAR
STARTCHAR sterling
ENCODING 163
SWIDTH 585 0
DWIDTH 8 0
BBX 6 10 1 1
BITMAP
38
44
40
40
F8
40
40
40
C0
FC
ENDCHAR
STARTCHAR yen
ENCODING 165
SWIDTH 585 0
DWIDTH 8 0
BBX 5 9 2 1
BITMAP
88
50
50
70
20
F8
20
F8
20
ENDCHAR
STARTCHAR brokenbar
ENCODING 166
SWIDTH 585 0
DWIDTH 8 0
BBX 1 11 4 1
BITMAP
80
80
80
80
80
00
80
80
80
80
80
ENDCHAR
STARTCHAR dieresis
ENCODING 168
SWIDTH 585 0
DWIDTH 8 0
BBX 4 1 2 9
BITMAP
90
ENDCHAR
STARTCHAR copyright
ENCODING 169
SWIDTH 585 0
DWIDTH 8 0
BBX 6 8 1 2
BITMAP
78
94
A4
A4
A4
A4
94
78
ENDCHAR
STARTCHAR ordfeminine
ENCODING 170
SWIDTH 585 0
DWIDTH 8 0
BBX 5 7 1 3
BITMAP
70
88
78
88
78
00
F8
ENDCHAR
STARTCHAR guillemotleft
ENCODING 171
SWIDTH 585 0
DWIDTH 8 0
BBX 7 6 1 2
BITMAP
12
24
C8
D8
24
12
ENDCHAR
STARTCHAR hyphen.dup3
ENCODING 173
SWIDTH 585 0
DWIDTH 8 0
BBX 6 1 1 5
BITMAP
FC
ENDCHAR
STARTCHAR registered
ENCODING 174
SWIDTH 585 0
DWIDTH 8 0
BBX 6 6 1 4
BITMAP
78
B4
BC
B4
BC
78
ENDCHAR
STARTCHAR degree
ENCODING 176
SWIDTH 585 0
DWIDTH 8 0
BBX 5 4 1 6
BITMAP
F8
88
88
F0
ENDCHAR
STARTCHAR uni00B2
ENCODING 178
SWIDTH 585 0
DWIDTH 8 0
BBX 3 4 2 7
BITMAP
E0
40
80
E0
ENDCHAR
STARTCHAR uni00B3
ENCODING 179
SWIDTH 585 0
DWIDTH 8 0
BBX 3 4 2 7
BITMAP
E0
40
20
E0
ENDCHAR
STARTCHAR acute
ENCODING 180
SWIDTH 585 0
DWIDTH 8 0
BBX 3 2 3 8
BITMAP
E0
80
ENDCHAR
STARTCHAR uni00B9
ENCODING 185
SWIDTH 585 0
DWIDTH 8 0
BBX 2 5 4 7
BITMAP
80
80
80
80
C0
ENDCHAR
STARTCHAR ordmasculine
ENCODING 186
SWIDTH 585 0
DWIDTH 8 0
BBX 4 7 2 3
BITMAP
70
A0
A0
A0
70
00
E0
ENDCHAR
STARTCHAR guillemotright
ENCODING 187
SWIDTH 585 0
DWIDTH 8 0
BBX 7 6 1 2
BITMAP
90
48
A6
66
48
90
ENDCHAR
STARTCHAR onequarter
ENCODING 188
SWIDTH 585 0
DWIDTH 8 0
BBX 8 10 1 1
BITMAP
C6
CC
C8
F0
10
20
6E
4A
9F
82
ENDCHAR
STARTCHAR onehalf
ENCODING 189
SWIDTH 585 0
DWIDTH 8 0
BBX 7 10 1 1
BITMAP
C6
CC
C8
F0
10
20
7E
CE
98
9E
ENDCHAR
STARTCHAR threequarters
ENCODING 190
SWIDTH 585 0
DWIDTH 8 0
BBX 7 10 1 1
BITMAP
F2
66
34
AC
58
10
3E
2A
5E
82
ENDCHAR
STARTCHAR questiondown
ENCODING 191
SWIDTH 585 0
DWIDTH 8 0
BBX 6 9 1 1
BITMAP
10
00
10
70
E0
80
80
F4
88
ENDCHAR
STARTCHAR Agrave
ENCODING 192
SWIDTH 585 0
DWIDTH 8 0
BBX 6 10 1 1
BITMAP
60
18
20
E4
DC
C4
84
FC
84
84
ENDCHAR
STARTCHAR Aacute
ENCODING 193
SWIDTH 585 0
DWIDTH 8 0
BBX 6 10 1 1
BITMAP
08
30
08
8C
BC
C4
84
FC
84
84
ENDCHAR
STARTCHAR Acircumflex
ENCODING 194
SWIDTH 585 0
DWIDTH 8 0
BBX 5 10 1 1
BITMAP
20
58
20
E8
D8
C8
88
F8
88
88
ENDCHAR
STARTCHAR Atilde
ENCODING 195
SWIDTH 585 0
DWIDTH 8 0
BBX 7 10 1 1
BITMAP
7C
00
10
B4
AC
C6
82
FE
86
82
ENDCHAR
STARTCHAR Adieresis
ENCODING 196
SWIDTH 585 0
DWIDTH 8 0
BBX 6 10 1 1
BITMAP
48
00
30
D4
CC
C4
84
FC
84
84
ENDCHAR
STARTCHAR Aring
ENCODING 197
SWIDTH 585 0
DWIDTH 8 0
BBX 6 11 1 1
BITMAP
10
28
10
10
B4
AC
C4
84
FC
84
84
ENDCHAR
STARTCHAR AE
ENCODING 198
SWIDTH 585 0
DWIDTH 8 0
BBX 6 10 1 1
BITMAP
1C
30
70
D0
9C
90
F0
90
90
9C
ENDCHAR
STARTCHAR Ccedilla
ENCODING 199
SWIDTH 585 0
DWIDTH 7 0
BBX 7 9 1 1
BITMAP
70
88
80
80
80
90
FE
30
60
ENDCHAR
STARTCHAR Egrave
ENCODING 200
SWIDTH 585 0
DWIDTH 8 0
BBX 6 10 1 1
BITMAP
70
10
FC
80
80
80
F8
80
80
FC
ENDCHAR
STARTCHAR Eacute
ENCODING 201
SWIDTH 585 0
DWIDTH 8 0
BBX 6 10 1 1
BITMAP
38
20
FC
80
80
80
F8
80
80
FC
ENDCHAR
STARTCHAR Ecircumflex
ENCODING 202
SWIDTH 585 0
DWIDTH 8 0
BBX 6 10 1 1
BITMAP
30
48
FC
80
80
80
F8
80
80
FC
ENDCHAR
STARTCHAR Edieresis
ENCODING 203
SWIDTH 585 0
DWIDTH 8 0
BBX 6 10 1 1
BITMAP
48
00
FC
80
80
80
F8
80
80
FC
ENDCHAR
STARTCHAR Igrave
ENCODING 204
SWIDTH 585 0
DWIDTH 8 0
BBX 4 10 2 1
BITMAP
E0
30
70
20
20
20
20
20
20
70
ENDCHAR
STARTCHAR Iacute
ENCODING 205
SWIDTH 585 0
DWIDTH 8 0
BBX 4 10 3 1
BITMAP
70
C0
E0
40
40
40
40
40
40
E0
ENDCHAR
STARTCHAR Icircumflex
ENCODING 206
SWIDTH 585 0
DWIDTH 8 0
BBX 3 10 3 1
BITMAP
40
A0
E0
40
40
40
40
40
40
E0
ENDCHAR
STARTCHAR Idieresis
ENCODING 207
SWIDTH 585 0
DWIDTH 7 0
BBX 3 10 2 1
BITMAP
A0
00
E0
40
40
40
40
40
40
E0
ENDCHAR
STARTCHAR Eth
ENCODING 208
SWIDTH 585 0
DWIDTH 7 0
BBX 5 9 1 1
BITMAP
78
48
48
48
E8
48
48
48
78
ENDCHAR
STARTCHAR Ntilde
ENCODING 209
SWIDTH 585 0
DWIDTH 8 0
BBX 6 10 1 1
BITMAP
78
00
84
C4
E4
B4
94
9C
8C
84
ENDCHAR
STARTCHAR Ograve
ENCODING 210
SWIDTH 585 0
DWIDTH 7 0
BBX 5 9 1 2
BITMAP
60
30
F8
88
88
88
88
88
F8
ENDCHAR
STARTCHAR Oacute
ENCODING 211
SWIDTH 585 0
DWIDTH 7 0
BBX 5 9 1 2
BITMAP
30
60
F8
88
88
88
88
88
F8
ENDCHAR
STARTCHAR Ocircumflex
ENCODING 212
SWIDTH 585 0
DWIDTH 7 0
BBX 5 9 1 2
BITMAP
20
50
F8
88
88
88
88
88
F8
ENDCHAR
STARTCHAR Otilde
ENCODING 213
SWIDTH 585 0
DWIDTH 8 0
BBX 6 9 1 2
BITMAP
78
00
FC
84
84
84
84
84
7C
ENDCHAR
STARTCHAR Odieresis
ENCODING 214
SWIDTH 585 0
DWIDTH 8 0
BBX 6 9 1 2
BITMAP
48
00
FC
84
84
84
84
84
FC
ENDCHAR
STARTCHAR Oslash
ENCODING 216
SWIDTH 585 0
DWIDTH 8 0
BBX 6 9 1 1
BITMAP
74
D8
9C
94
A4
A4
E4
4C
B8
ENDCHAR
STARTCHAR Ugrave
ENCODING 217
SWIDTH 585 0
DWIDTH 8 0
BBX 6 9 1 2
BITMAP
70
10
84
84
84
84
84
84
FC
ENDCHAR
STARTCHAR Uacute
ENCODING 218
SWIDTH 585 0
DWIDTH 8 0
BBX 6 9 1 2
BITMAP
38
20
84
84
84
84
84
84
FC
ENDCHAR
STARTCHAR Ucircumflex
ENCODING 219
SWIDTH 585 0
DWIDTH 8 0
BBX 6 9 1 2
BITMAP
30
48
84
84
84
84
84
84
FC
ENDCHAR
STARTCHAR Udieresis
ENCODING 220
SWIDTH 585 0
DWIDTH 8 0
BBX 6 9 1 2
BITMAP
48
00
84
84
84
84
84
84
FC
ENDCHAR
STARTCHAR Yacute
ENCODING 221
SWIDTH 585 0
DWIDTH 8 0
BBX 6 10 1 1
BITMAP
18
30
84
84
C4
38
10
10
10
10
ENDCHAR
STARTCHAR Thorn
ENCODING 222
SWIDTH 585 0
DWIDTH 7 0
BBX 5 10 1 1
BITMAP
80
80
F8
88
88
88
88
F8
80
80
ENDCHAR
STARTCHAR germandbls
ENCODING 223
SWIDTH 585 0
DWIDTH 8 0
BBX 5 11 1 1
BITMAP
F0
B0
90
90
90
90
90
88
88
88
B8
ENDCHAR
STARTCHAR agrave
ENCODING 224
SWIDTH 585 0
DWIDTH 8 0
BBX 5 9 2 1
BITMAP
60
30
00
78
08
F8
88
98
78
ENDCHAR
STARTCHAR aacute
ENCODING 225
SWIDTH 585 0
DWIDTH 8 0
BBX 5 9 2 1
BITMAP
30
40
00
78
08
F8
88
98
78
ENDCHAR
STARTCHAR acircumflex
ENCODING 226
SWIDTH 585 0
DWIDTH 8 0
BBX 5 9 2 1
BITMAP
20
50
00
78
08
F8
88
98
78
ENDCHAR
STARTCHAR atilde
ENCODING 227
SWIDTH 585 0
DWIDTH 8 0
BBX 5 9 2 1
BITMAP
50
A0
00
F8
08
F8
88
98
E8
ENDCHAR
STARTCHAR adieresis
ENCODING 228
SWIDTH 585 0
DWIDTH 8 0
BBX 5 9 2 1
BITMAP
50
00
00
78
08
F8
88
88
78
ENDCHAR
STARTCHAR aring
ENCODING 229
SWIDTH 585 0
DWIDTH 8 0
BBX 5 9 2 1
BITMAP
20
50
20
78
08
F8
88
98
78
ENDCHAR
STARTCHAR ae
ENCODING 230
SWIDTH 585 0
DWIDTH 8 0
BBX 6 7 1 1
BITMAP
E8
14
14
7C
90
90
68
ENDCHAR
STARTCHAR ccedilla
ENCODING 231
SWIDTH 585 0
DWIDTH 7 0
BBX 5 8 1 1
BITMAP
F8
80
80
80
80
F8
30
60
ENDCHAR
STARTCHAR egrave
ENCODING 232
SWIDTH 585 0
DWIDTH 7 0
BBX 5 9 1 1
BITMAP
60
30
00
E8
98
F8
80
88
70
ENDCHAR
STARTCHAR eacute
ENCODING 233
SWIDTH 585 0
DWIDTH 7 0
BBX 5 9 1 1
BITMAP
38
60
00
E8
98
F8
80
88
70
ENDCHAR
STARTCHAR ecircumflex
ENCODING 234
SWIDTH 585 0
DWIDTH 7 0
BBX 5 9 1 1
BITMAP
20
58
00
E8
98
F8
80
88
70
ENDCHAR
STARTCHAR edieresis
ENCODING 235
SWIDTH 585 0
DWIDTH 8 0
BBX 6 9 1 1
BITMAP
48
00
00
E4
9C
FC
80
84
78
ENDCHAR
STARTCHAR igrave
ENCODING 236
SWIDTH 585 0
DWIDTH 8 0
BBX 5 8 1 2
BITMAP
E0
10
00
70
10
10
10
18
ENDCHAR
STARTCHAR iacute
ENCODING 237
SWIDTH 585 0
DWIDTH 8 0
BBX 4 8 2 2
BITMAP
30
40
00
E0
20
20
20
30
ENDCHAR
STARTCHAR icircumflex
ENCODING 238
SWIDTH 585 0
DWIDTH 8 0
BBX 5 8 1 2
BITMAP
20
D0
00
70
10
10
10
18
ENDCHAR
STARTCHAR idieresis
ENCODING 239
SWIDTH 585 0
DWIDTH 8 0
BBX 5 8 2 2
BITMAP
A0
00
00
70
10
20
20
38
ENDCHAR
STARTCHAR eth
ENCODING 240
SWIDTH 585 0
DWIDTH 8 0
BBX 7 9 1 2
BITMAP
04
04
7E
04
FC
84
84
84
FC
ENDCHAR
STARTCHAR ntilde
ENCODING 241
SWIDTH 585 0
DWIDTH 8 0
BBX 6 9 1 1
BITMAP
28
50
00
FC
84
84
84
84
84
ENDCHAR
STARTCHAR ograve
ENCODING 242
SWIDTH 585 0
DWIDTH 7 0
BBX 5 8 1 2
BITMAP
60
30
00
F8
88
88
88
F8
ENDCHAR
STARTCHAR oacute
ENCODING 243
SWIDTH 585 0
DWIDTH 7 0
BBX 5 8 1 2
BITMAP
30
60
00
F8
88
88
88
F8
ENDCHAR
STARTCHAR ocircumflex
ENCODING 244
SWIDTH 585 0
DWIDTH 7 0
BBX 5 8 1 2
BITMAP
20
50
00
F8
88
88
88
F8
ENDCHAR
STARTCHAR otilde
ENCODING 245
SWIDTH 585 0
DWIDTH 8 0
BBX 6 8 1 2
BITMAP
28
50
00
FC
84
84
84
7C
ENDCHAR
STARTCHAR odieresis
ENCODING 246
SWIDTH 585 0
DWIDTH 8 0
BBX 6 8 1 2
BITMAP
48
00
00
FC
84
84
84
FC
ENDCHAR
STARTCHAR oslash
ENCODING 248
SWIDTH 585 0
DWIDTH 9 0
BBX 7 7 1 1
BITMAP
7A
C4
9E
92
F2
46
BC
ENDCHAR
STARTCHAR ugrave
ENCODING 249
SWIDTH 585 0
DWIDTH 8 0
BBX 6 8 1 2
BITMAP
70
10
84
84
84
84
84
FC
ENDCHAR
STARTCHAR uacute
ENCODING 250
SWIDTH 585 0
DWIDTH 8 0
BBX 6 8 1 2
BITMAP
38
20
84
84
84
84
84
FC
ENDCHAR
STARTCHAR ucircumflex
ENCODING 251
SWIDTH 585 0
DWIDTH 8 0
BBX 6 8 1 2
BITMAP
30
48
84
84
84
84
84
FC
ENDCHAR
STARTCHAR udieresis
ENCODING 252
SWIDTH 585 0
DWIDTH 8 0
BBX 6 8 1 2
BITMAP
48
00
84
84
84
84
84
FC
ENDCHAR
STARTCHAR yacute
ENCODING 253
SWIDTH 585 0
DWIDTH 7 0
BBX 5 9 1 1
BITMAP
30
20
00
88
88
98
68
08
78
ENDCHAR
STARTCHAR thorn
ENCODING 254
SWIDTH 585 0
DWIDTH 7 0
BBX 6 9 1 1
BITMAP
80
80
B8
CC
84
88
C8
B8
80
ENDCHAR
STARTCHAR ydieresis
ENCODING 255
SWIDTH 585 0
DWIDTH 8 0
BBX 6 9 1 1
BITMAP
48
00
00
84
84
8C
74
04
7C
ENDCHAR
STARTCHAR semicolon.dup4
ENCODING 894
SWIDTH 585 0
DWIDTH 8 0
BBX 2 8 2 1
BITMAP
40
00
00
00
00
40
40
80
ENDCHAR
STARTCHAR quoteleft
ENCODING 8216
SWIDTH 585 0
DWIDTH 8 0
BBX 1 4 4 6
BITMAP
80
80
80
80
ENDCHAR
STARTCHAR quoteright
ENCODING 8217
SWIDTH 585 0
DWIDTH 8 0
BBX 1 4 2 6
BITMAP
80
80
80
80
ENDCHAR
STARTCHAR quotedblleft
ENCODING 8220
SWIDTH 585 0
DWIDTH 8 0
BBX 4 4 2 6
BITMAP
90
90
90
90
ENDCHAR
STARTCHAR quotedblright
ENCODING 8221
SWIDTH 585 0
DWIDTH 8 0
BBX 6 4 1 6
BITMAP
84
84
84
88
ENDCHAR
STARTCHAR bullet
ENCODING 8226
SWIDTH 585 0
DWIDTH 8 0
BBX 5 3 2 4
BITMAP
F8
70
70
ENDCHAR
STARTCHAR ellipsis
ENCODING 8230
SWIDTH 585 0
DWIDTH 7 0
BBX 5 1 1 1
BITMAP
A8
ENDCHAR
STARTCHAR guilsinglleft
ENCODING 8249
SWIDTH 585 0
DWIDTH 8 0
BBX 4 6 1 1
BITMAP
10
20
40
C0
20
10
ENDCHAR
STARTCHAR guilsinglright
ENCODING 8250
SWIDTH 585 0
DWIDTH 8 0
BBX 4 6 2 1
BITMAP
80
40
20
30
40
80
ENDCHAR
STARTCHAR fraction
ENCODING 8260
SWIDTH 585 0
DWIDTH 8 0
BBX 6 9 1 1
BITMAP
04
04
0C
18
30
60
C0
80
80
ENDCHAR
STARTCHAR franc
ENCODING 8355
SWIDTH 585 0
DWIDTH 8 0
BBX 7 9 1 1
BITMAP
7E
40
40
40
78
40
E0
40
40
ENDCHAR
STARTCHAR lira
ENCODING 8356
SWIDTH 585 0
DWIDTH 8 0
BBX 6 10 1 1
BITMAP
38
44
40
40
F8
40
F8
40
C0
FC
ENDCHAR
STARTCHAR peseta
ENCODING 8359
SWIDTH 585 0
DWIDTH 9 0
BBX 7 9 1 1
BITMAP
80
C0
C0
C0
F6
9A
9E
92
9E
ENDCHAR
STARTCHAR Euro
ENCODING 8364
SWIDTH 585 0
DWIDTH 8 0
BBX 6 10 1 1
BITMAP
38
24
40
F0
40
F0
40
40
24
38
ENDCHAR
STARTCHAR trademark
ENCODING 8482
SWIDTH 585 0
DWIDTH 9 0
BBX 7 4 1 6
BITMAP
F2
5E
5A
52
ENDCHAR
STARTCHAR arrowleft
ENCODING 8592
SWIDTH 585 0
DWIDTH 8 0
BBX 7 7 1 2
BITMAP
10
20
40
FE
40
20
10
ENDCHAR
STARTCHAR arrowup
ENCODING 8593
SWIDTH 585 0
DWIDTH 8 0
BBX 6 7 1 2
BITMAP
30
38
38
58
44
44
88
ENDCHAR
STARTCHAR arrowright
ENCODING 8594
SWIDTH 585 0
DWIDTH 8 0
BBX 7 7 1 2
BITMAP
10
08
04
FE
04
18
10
ENDCHAR
STARTCHAR arrowdown
ENCODING 8595
SWIDTH 585 0
DWIDTH 8 0
BBX 6 7 1 2
BITMAP
88
44
44
58
38
38
20
ENDCHAR
STARTCHAR arrowboth
ENCODING 8596
SWIDTH 585 0
DWIDTH 8 0
BBX 5 7 1 1
BITMAP
10
10
F8
F8
F8
10
10
ENDCHAR
STARTCHAR fraction.dup5
ENCODING 8725
SWIDTH 585 0
DWIDTH 8 0
BBX 6 9 1 1
BITMAP
04
04
0C
18
30
60
C0
80
80
ENDCHAR
STARTCHAR triagup
ENCODING 9650
SWIDTH 585 0
DWIDTH 8 0
BBX 7 9 1 1
BITMAP
10
38
38
7C
7C
7C
FE
FE
FE
ENDCHAR
STARTCHAR triagrt
ENCODING 9658
SWIDTH 585 0
DWIDTH 8 0
BBX 5 9 1 1
BITMAP
80
E0
F0
F0
F8
F0
F0
E0
80
ENDCHAR
STARTCHAR triagdn
ENCODING 9660
SWIDTH 585 0
DWIDTH 8 0
BBX 7 9 1 1
BITMAP
FE
FE
FE
7C
7C
7C
38
38
10
ENDCHAR
STARTCHAR triaglf
ENCODING 9668
SWIDTH 585 0
DWIDTH 8 0
BBX 5 9 2 1
BITMAP
08
38
78
78
F8
78
78
38
08
ENDCHAR
STARTCHAR .notdef
ENCODING -1
SWIDTH 585 0
DWIDTH 10 0
BBX 9 12 0 0
BITMAP
FF80
8080
C380
A480
9480
9880
9880
9480
A280
C280
8180
FF80
ENDCHAR
STARTCHAR nonmarkingreturn
ENCODING -1
SWIDTH 585 0
DWIDTH 8 0
BBX 1 1 0 0
BITMAP
00
ENDCHAR
ENDFONT
